<mxfile host="65bd71144e">
    <diagram id="JGnCUF6co02dB_yI7lwq" name="Pagina-1">
        <mxGraphModel dx="643" dy="831" grid="1" gridSize="10" guides="1" tooltips="1" connect="1" arrows="1" fold="1" page="1" pageScale="1" pageWidth="827" pageHeight="1169" math="1" shadow="0">
            <root>
                <mxCell id="0"/>
                <mxCell id="1" parent="0"/>
                <mxCell id="5" style="edgeStyle=none;shape=flexArrow;html=1;entryX=1;entryY=1;entryDx=0;entryDy=0;" edge="1" parent="1" source="2">
                    <mxGeometry relative="1" as="geometry">
                        <mxPoint x="170" y="530" as="targetPoint"/>
                        <Array as="points">
                            <mxPoint x="170" y="720"/>
                        </Array>
                    </mxGeometry>
                </mxCell>
                <mxCell id="6" style="edgeStyle=none;shape=flexArrow;html=1;entryX=0.5;entryY=1;entryDx=0;entryDy=0;" edge="1" parent="1" source="2" target="4">
                    <mxGeometry relative="1" as="geometry">
                        <mxPoint x="490" y="720" as="targetPoint"/>
                        <Array as="points">
                            <mxPoint x="460" y="720"/>
                        </Array>
                    </mxGeometry>
                </mxCell>
                <mxCell id="2" value="Analisi problema" style="whiteSpace=wrap;html=1;aspect=fixed;fillColor=#a20025;fontColor=#ffffff;strokeColor=#6F0000;" vertex="1" parent="1">
                    <mxGeometry x="260" y="680" width="80" height="80" as="geometry"/>
                </mxCell>
                <mxCell id="9" value="input soluzione Alfa" style="edgeStyle=none;html=1;entryX=0.25;entryY=1;entryDx=0;entryDy=0;fontSize=16;textOpacity=50;" edge="1" parent="1" source="3" target="7">
                    <mxGeometry x="-0.2368" y="10" relative="1" as="geometry">
                        <mxPoint as="offset"/>
                    </mxGeometry>
                </mxCell>
                <mxCell id="3" value="Soluzione Alfa" style="rounded=1;whiteSpace=wrap;html=1;fillColor=#008a00;fontColor=#ffffff;strokeColor=#005700;" vertex="1" parent="1">
                    <mxGeometry x="100" y="470" width="120" height="60" as="geometry"/>
                </mxCell>
                <mxCell id="4" value="Soluzione Beta" style="rounded=1;whiteSpace=wrap;html=1;fillColor=#008a00;fontColor=#ffffff;strokeColor=#005700;" vertex="1" parent="1">
                    <mxGeometry x="400" y="470" width="120" height="60" as="geometry"/>
                </mxCell>
                <mxCell id="10" value="input soluzione Beta" style="edgeStyle=none;html=1;entryX=0.75;entryY=1;entryDx=0;entryDy=0;fontSize=16;textOpacity=50;" edge="1" parent="1" source="4" target="7">
                    <mxGeometry relative="1" as="geometry"/>
                </mxCell>
                <mxCell id="7" value="$$\sum_{i=0}^{\inf} X_i =&amp;nbsp; \infty$$" style="shape=parallelogram;perimeter=parallelogramPerimeter;whiteSpace=wrap;html=1;fixedSize=1;" vertex="1" parent="1">
                    <mxGeometry x="65" y="80" width="470" height="130" as="geometry"/>
                </mxCell>
            </root>
        </mxGraphModel>
    </diagram>
</mxfile>